<svg width="20" height="20" viewBox="0 0 20 20" fill="none" xmlns="http://www.w3.org/2000/svg">
<g clip-path="url(#clip0_118775_4)">
<path d="M10.0015 0.74074C15.1153 0.74074 19.2607 4.88611 19.2607 10C19.2607 15.1139 15.1153 19.2593 10.0015 19.2593C8.36514 19.2619 6.75762 18.8289 5.34405 18.0046L0.745904 19.2593L1.99776 14.6593C1.17284 13.2453 0.739467 11.637 0.7422 10C0.7422 4.88611 4.88757 0.74074 10.0015 0.74074ZM6.8459 5.64815L6.66072 5.65555C6.54083 5.66286 6.42366 5.69435 6.31627 5.74815C6.21583 5.80503 6.12414 5.87613 6.04405 5.95926C5.93294 6.06389 5.86998 6.15463 5.80239 6.24259C5.45991 6.68787 5.27551 7.23455 5.27831 7.79629C5.28016 8.25 5.39868 8.69167 5.58387 9.10463C5.96257 9.93981 6.58572 10.8241 7.40794 11.6435C7.60609 11.8407 7.80053 12.0389 8.00979 12.2231C9.03145 13.1226 10.2489 13.7713 11.5653 14.1176L12.0913 14.1981C12.2626 14.2074 12.4339 14.1944 12.6061 14.1861C12.8758 14.1722 13.1391 14.0992 13.3774 13.9722C13.4986 13.9098 13.617 13.8418 13.732 13.7685C13.732 13.7685 13.7718 13.7426 13.8478 13.6852C13.9728 13.5926 14.0496 13.5269 14.1533 13.4185C14.2302 13.3389 14.2968 13.2454 14.3478 13.1389C14.42 12.988 14.4922 12.7 14.5218 12.4602C14.5441 12.2768 14.5376 12.1769 14.5348 12.1148C14.5311 12.0157 14.4487 11.913 14.3589 11.8694L13.82 11.6278C13.82 11.6278 13.0144 11.2769 12.5218 11.0528C12.4703 11.0303 12.4151 11.0174 12.3589 11.0148C12.2955 11.0083 12.2315 11.0154 12.1711 11.0357C12.1108 11.056 12.0554 11.089 12.0089 11.1324C12.0042 11.1306 11.9422 11.1833 11.2728 11.9944C11.2343 12.0461 11.1814 12.0851 11.1207 12.1065C11.06 12.128 10.9943 12.1309 10.932 12.1148C10.8717 12.0986 10.8126 12.0782 10.7552 12.0537C10.6403 12.0056 10.6005 11.987 10.5218 11.9537C9.99041 11.7218 9.49839 11.4085 9.0635 11.025C8.94683 10.9231 8.8385 10.812 8.72738 10.7046C8.36311 10.3558 8.04565 9.96111 7.78294 9.53055L7.72831 9.44259C7.68907 9.38348 7.65735 9.31972 7.63387 9.25278C7.59868 9.11666 7.69035 9.00741 7.69035 9.00741C7.69035 9.00741 7.91535 8.76111 8.01998 8.62778C8.12183 8.49815 8.20794 8.37222 8.2635 8.28241C8.37275 8.10648 8.40701 7.92592 8.34961 7.78611C8.09035 7.15278 7.82183 6.52222 7.5459 5.89629C7.49127 5.77222 7.32924 5.68333 7.18201 5.66574C7.13201 5.66018 7.08201 5.65463 7.03201 5.65092C6.90767 5.64475 6.78307 5.64598 6.65887 5.65463L6.84498 5.64722L6.8459 5.64815Z" fill="black"/>
</g>
<defs>
<clipPath id="clip0_118775_4">
<rect width="20" height="20" fill="black"/>
</clipPath>
</defs>
</svg>
