<svg width="20" height="20" viewBox="0 0 20 20" fill="none" xmlns="http://www.w3.org/2000/svg">
<path d="M7.09293 6.61186L11.2332 11.066C11.3786 11.2225 11.574 11.3237 11.7857 11.3523L12.91 11.5038C13.06 11.524 13.075 11.7351 12.9295 11.7765L10.8794 12.36C10.6454 12.4266 10.3956 12.3295 10.268 12.1224L6.94375 6.72535C6.88417 6.62851 7.01546 6.52854 7.09293 6.61186ZM0 2C0 0.895431 0.895431 2.26013e-07 2 2.26013e-07H18C19.1046 2.26013e-07 20 0.895431 20 2V18C20 19.1046 19.1046 20 18 20H2C0.895431 20 0 19.1046 0 18V2ZM4.80502 4.45071L9.17702 15.7839C9.28482 16.0633 9.68092 16.0612 9.78567 15.7806L10.4734 13.9383C10.6898 13.3586 11.1623 12.9117 11.7532 12.7279L14.2539 11.9503C14.4741 11.8818 14.5553 11.6125 14.4095 11.4338L13.1547 9.89446C13.0231 9.73309 13.0167 9.50348 13.139 9.33502L15.1548 6.55845C15.2936 6.36733 15.189 6.09659 14.9577 6.04854L5.17483 4.01489C4.92255 3.96239 4.71222 4.21022 4.80502 4.45071Z" fill="white"/>
</svg>
