<svg width="20" height="20" viewBox="0 0 20 20" fill="none" xmlns="http://www.w3.org/2000/svg">
<path d="M13.3881 7.09293L8.93397 11.2332C8.77746 11.3786 8.67633 11.574 8.64774 11.7857L8.49617 12.91C8.47598 13.06 8.26491 13.075 8.22353 12.9295L7.64002 10.8794C7.57342 10.6454 7.67051 10.3956 7.87763 10.268L13.2747 6.94375C13.3715 6.88417 13.4715 7.01546 13.3881 7.09293ZM18 0C19.1046 0 20 0.895431 20 2V18C20 19.1046 19.1046 20 18 20H2C0.895431 20 0 19.1046 0 18L0 2C0 0.895431 0.895431 0 2 0L18 0ZM15.5493 4.80502L4.21607 9.17702C3.93667 9.28482 3.93881 9.68092 4.21936 9.78567L6.06171 10.4734C6.64142 10.6898 7.08832 11.1623 7.27206 11.7532L8.04971 14.2539C8.1182 14.4741 8.38754 14.5553 8.56622 14.4095L10.1055 13.1547C10.2669 13.0231 10.4965 13.0167 10.665 13.139L13.4415 15.1548C13.6327 15.2936 13.9034 15.189 13.9515 14.9577L15.9851 5.17483C16.0376 4.92255 15.7898 4.71222 15.5493 4.80502Z" fill="black"/>
</svg>
