<svg width="20" height="20" viewBox="0 0 20 20" fill="none" xmlns="http://www.w3.org/2000/svg">
<g clip-path="url(#clip0_118775_6)">
<path d="M0.741211 9.99907C0.741211 4.88519 4.88658 0.739817 10.0005 0.739817C15.1144 0.739817 19.2597 4.88519 19.2597 9.99907C19.2624 11.6354 18.8293 13.2429 18.0051 14.6565L19.2597 19.2546L14.6597 18.0028C13.2457 18.8277 11.6375 19.2611 10.0005 19.2583C4.88658 19.2583 0.741211 15.113 0.741211 9.99907ZM5.64862 13.1546L5.65603 13.3398C5.66333 13.4597 5.69482 13.5769 5.74862 13.6843C5.8055 13.7847 5.8766 13.8764 5.95973 13.9565C6.06436 14.0676 6.1551 14.1306 6.24306 14.1981C6.68834 14.5406 7.23502 14.725 7.79677 14.7222C8.25047 14.7204 8.69214 14.6019 9.1051 14.4167C9.94028 14.038 10.8245 13.4148 11.644 12.5926C11.8412 12.3944 12.0394 12.2 12.2236 11.9907C13.1231 10.9691 13.7718 9.75162 14.1181 8.43519L14.1986 7.90926C14.2079 7.73796 14.1949 7.56667 14.1866 7.39445C14.1727 7.12478 14.0996 6.86147 13.9727 6.62315C13.9102 6.50189 13.8423 6.38356 13.769 6.26852C13.769 6.26852 13.7431 6.2287 13.6857 6.15278C13.5931 6.02778 13.5273 5.95093 13.419 5.84722C13.3394 5.77037 13.2458 5.70371 13.1394 5.65278C12.9884 5.58056 12.7005 5.50834 12.4607 5.47871C12.2773 5.45648 12.1773 5.46297 12.1153 5.46574C12.0162 5.46945 11.9134 5.55185 11.8699 5.64167L11.6282 6.18056C11.6282 6.18056 11.2773 6.98611 11.0532 7.47871C11.0307 7.53025 11.0179 7.58548 11.0153 7.64167C11.0088 7.70502 11.0159 7.76903 11.0362 7.8294C11.0565 7.88977 11.0894 7.9451 11.1329 7.99167C11.131 7.9963 11.1838 8.05833 11.9949 8.72778C12.0465 8.7662 12.0856 8.81913 12.107 8.87981C12.1284 8.9405 12.1313 9.00619 12.1153 9.06852C12.0991 9.12884 12.0787 9.18794 12.0542 9.24537C12.006 9.36019 11.9875 9.4 11.9542 9.47871C11.7223 10.0101 11.4089 10.5021 11.0255 10.937C10.9236 11.0537 10.8125 11.162 10.7051 11.2731C10.3562 11.6374 9.96159 11.9549 9.53103 12.2176L9.44306 12.2722C9.38396 12.3115 9.32019 12.3432 9.25325 12.3667C9.11714 12.4019 9.00788 12.3102 9.00788 12.3102C9.00788 12.3102 8.76158 12.0852 8.62825 11.9806C8.49862 11.8787 8.37269 11.7926 8.28288 11.737C8.10695 11.6278 7.9264 11.5935 7.78658 11.6509C7.15325 11.9102 6.52269 12.1787 5.89677 12.4546C5.77269 12.5093 5.6838 12.6713 5.66621 12.8185C5.66065 12.8685 5.6551 12.9185 5.6514 12.9685C5.64522 13.0929 5.64645 13.2175 5.6551 13.3417L5.64769 13.1556L5.64862 13.1546Z" fill="white"/>
</g>
<defs>
<clipPath id="clip0_118775_6">
<rect width="20" height="20" fill="white" transform="matrix(0 -1 1 0 0 20)"/>
</clipPath>
</defs>
</svg>
