<svg width="65" height="60" viewBox="0 0 65 60" fill="none" xmlns="http://www.w3.org/2000/svg">
<path d="M0 9.28583H15.1963V14.2858H0V9.28583ZM0 0H15.1963V4.99995H0V0ZM27.2645 18.5001H0V23.5H26.2427C29.1159 23.5 35.8201 23.5713 38.3104 28.0714V25.2858C37.0972 20.857 33.522 18.5001 27.2645 18.5001ZM27.3279 27.7856H0V32.7856H26.2427C32.6277 32.7856 36.6504 33.0713 38.3104 34.0714V31.8571C37.0332 28.3571 31.6697 27.7856 27.3279 27.7856ZM27.2645 51.357H0V46.357H26.2427C29.1159 46.357 35.8201 46.2857 38.3104 41.7857V44.5712C37.0972 49 33.522 51.357 27.2645 51.357ZM27.3279 42.0714H0V37.0715H26.2427C32.6277 37.0715 36.6504 36.7857 38.3104 35.7856V38C37.0332 41.4999 31.6697 42.0714 27.3279 42.0714ZM44.9508 60H65V56.9284H45.5254C43.8014 56.9284 39.7153 56.8571 38.2467 54.2141V55.9286C38.949 58.5713 41.1199 60 44.9508 60ZM44.8871 54.357H64.9363V51.2857H45.5254C41.6305 51.2857 39.2041 51.1428 38.2464 50.5V51.8571C39.0124 53.9999 42.269 54.357 44.8871 54.357Z" fill="#010101"/>
</svg>
