<svg width="65" height="65" viewBox="0 0 65 65" fill="none" xmlns="http://www.w3.org/2000/svg">
<g clip-path="url(#clip0_118757_8)">
<path d="M49.7656 0H15.2344C6.82066 0 0 6.82066 0 15.2344V49.7656C0 58.1793 6.82066 65 15.2344 65H49.7656C58.1793 65 65 58.1793 65 49.7656V15.2344C65 6.82066 58.1793 0 49.7656 0Z" fill="url(#paint0_linear_118757_8)"/>
<g filter="url(#filter0_d_118757_8)">
<path d="M33.508 49.8055C41.0429 49.8055 45.5835 46.116 45.5835 40.0309C45.5835 35.4308 42.3439 32.1009 37.5332 31.5735V31.3821C41.0676 30.807 43.841 27.5247 43.841 23.8593C43.841 18.6365 39.7178 15.2344 33.4344 15.2344H19.2969V49.8055H33.508ZM24.7947 19.6186H32.109C36.0852 19.6186 38.3431 21.3916 38.3431 24.602C38.3431 28.0279 35.717 29.9444 30.9555 29.9444H24.7947V19.6186ZM24.7947 45.4213V34.0415H32.0597C37.2633 34.0415 39.9631 35.958 39.9631 39.6955C39.9631 43.4327 37.3369 45.4213 32.3789 45.4213H24.7947Z" fill="url(#paint1_linear_118757_8)"/>
<path d="M33.508 49.8055C41.0429 49.8055 45.5835 46.116 45.5835 40.0309C45.5835 35.4308 42.3439 32.1009 37.5332 31.5735V31.3821C41.0676 30.807 43.841 27.5247 43.841 23.8593C43.841 18.6365 39.7178 15.2344 33.4344 15.2344H19.2969V49.8055H33.508ZM24.7947 19.6186H32.109C36.0852 19.6186 38.3431 21.3916 38.3431 24.602C38.3431 28.0279 35.717 29.9444 30.9555 29.9444H24.7947V19.6186ZM24.7947 45.4213V34.0415H32.0597C37.2633 34.0415 39.9631 35.958 39.9631 39.6955C39.9631 43.4327 37.3369 45.4213 32.3789 45.4213H24.7947Z" stroke="white" stroke-width="2"/>
</g>
</g>
<defs>
<filter id="filter0_d_118757_8" x="2.29688" y="2.23438" width="60.2871" height="68.571" filterUnits="userSpaceOnUse" color-interpolation-filters="sRGB">
<feFlood flood-opacity="0" result="BackgroundImageFix"/>
<feColorMatrix in="SourceAlpha" type="matrix" values="0 0 0 0 0 0 0 0 0 0 0 0 0 0 0 0 0 0 127 0" result="hardAlpha"/>
<feOffset dy="4"/>
<feGaussianBlur stdDeviation="8"/>
<feColorMatrix type="matrix" values="0 0 0 0 0 0 0 0 0 0 0 0 0 0 0 0 0 0 0.15 0"/>
<feBlend mode="normal" in2="BackgroundImageFix" result="effect1_dropShadow_118757_8"/>
<feBlend mode="normal" in="SourceGraphic" in2="effect1_dropShadow_118757_8" result="shape"/>
</filter>
<linearGradient id="paint0_linear_118757_8" x1="0" y1="0" x2="65" y2="65" gradientUnits="userSpaceOnUse">
<stop stop-color="#9013FE"/>
<stop offset="1" stop-color="#6B11F4"/>
</linearGradient>
<linearGradient id="paint1_linear_118757_8" x1="21.7834" y1="17.5099" x2="37.7155" y2="44.4549" gradientUnits="userSpaceOnUse">
<stop stop-color="white"/>
<stop offset="1" stop-color="#F1E5FC"/>
</linearGradient>
<clipPath id="clip0_118757_8">
<rect width="65" height="65" fill="white"/>
</clipPath>
</defs>
</svg>
