<svg width="45" height="65" viewBox="0 0 45 65" fill="none" xmlns="http://www.w3.org/2000/svg">
<g clip-path="url(#clip0_118756_2)">
<path d="M11.25 64.9999C17.46 64.9999 22.5 60.1466 22.5 54.1666V43.3333H11.25C5.04 43.3333 0 48.1866 0 54.1666C0 60.1466 5.04 64.9999 11.25 64.9999Z" fill="#0ACF83"/>
<path d="M0 32.5001C0 26.5201 5.04 21.6667 11.25 21.6667H22.5V43.3334H11.25C5.04 43.3334 0 38.4801 0 32.5001Z" fill="#A259FF"/>
<path d="M0 10.8333C0 4.85333 5.04 0 11.25 0H22.5V21.6667H11.25C5.04 21.6667 0 16.8133 0 10.8333Z" fill="#F24E1E"/>
<path d="M22.5 0H33.75C39.96 0 45 4.85333 45 10.8333C45 16.8133 39.96 21.6667 33.75 21.6667H22.5V0Z" fill="#FF7262"/>
<path d="M45 32.5001C45 38.4801 39.96 43.3334 33.75 43.3334C27.54 43.3334 22.5 38.4801 22.5 32.5001C22.5 26.5201 27.54 21.6667 33.75 21.6667C39.96 21.6667 45 26.5201 45 32.5001Z" fill="#1ABCFE"/>
</g>
<defs>
<clipPath id="clip0_118756_2">
<rect width="45" height="65" fill="white"/>
</clipPath>
</defs>
</svg>
