<svg width="65" height="65" viewBox="0 0 65 65" fill="none" xmlns="http://www.w3.org/2000/svg">
<g clip-path="url(#clip0_118757_14)">
<path d="M49.7656 0H15.2344C6.82066 0 0 6.82066 0 15.2344V49.7656C0 58.1793 6.82066 65 15.2344 65H49.7656C58.1793 65 65 58.1793 65 49.7656V15.2344C65 6.82066 58.1793 0 49.7656 0Z" fill="#F03C2E"/>
<mask id="mask0_118757_14" style="mask-type:luminance" maskUnits="userSpaceOnUse" x="7" y="7" width="51" height="51">
<path d="M7.10938 7.10938H57.8906V57.8906H7.10938V7.10938Z" fill="white"/>
</mask>
<g mask="url(#mask0_118757_14)">
<path d="M56.9319 30.2389L34.761 8.06804C34.3039 7.61039 33.7213 7.2987 33.0869 7.17246C32.4525 7.04622 31.7949 7.11109 31.1974 7.35888C30.8008 7.52328 30.4404 7.76426 30.1369 8.06804L25.5348 12.6701L31.3747 18.5099C32.7331 18.0339 34.2882 18.3591 35.3704 19.4415C35.8855 19.9576 36.2452 20.6082 36.4082 21.319C36.5712 22.0298 36.5311 22.7721 36.2923 23.4611L41.9212 29.09C43.2829 28.6202 44.8538 28.9231 45.9408 30.0134C46.4852 30.5577 46.856 31.2512 47.0061 32.0063C47.1562 32.7614 47.0789 33.544 46.784 34.2552C46.3886 35.2086 45.6308 35.966 44.6772 36.3608C43.7235 36.7557 42.6521 36.7557 41.6985 36.3608C41.2262 36.165 40.7971 35.8784 40.4358 35.5168C39.2932 34.3742 39.0109 32.6921 39.5885 31.2845L34.339 26.035V39.8492C34.7201 40.0377 35.0683 40.2864 35.3704 40.5856C36.1002 41.3154 36.5102 42.3052 36.5102 43.3373C36.5102 44.3694 36.1002 45.3592 35.3704 46.089C34.6406 46.8188 33.6508 47.2288 32.6187 47.2288C31.5866 47.2288 30.5968 46.8188 29.867 46.089C29.3223 45.545 28.9512 44.8516 28.8009 44.0965C28.6506 43.3415 28.7277 42.5589 29.0225 41.8477C29.2182 41.3755 29.5052 40.9466 29.867 40.5856C30.243 40.211 30.6604 39.9269 31.1413 39.7365V25.7937C30.6642 25.5987 30.2309 25.3101 29.867 24.9449C29.3206 24.3991 28.9491 23.703 28.7999 22.9452C28.6507 22.1875 28.7304 21.4025 29.0291 20.6902L23.2687 14.9332L8.06607 30.1198C7.6084 30.5771 7.29669 31.16 7.17036 31.7945C7.04404 32.4291 7.10878 33.0869 7.3564 33.6846C7.52096 34.0815 7.76211 34.4421 8.06607 34.7457L30.2384 56.9148C30.542 57.2185 30.9024 57.4594 31.299 57.6239C32.1004 57.9556 33.0006 57.9556 33.802 57.6239C34.1986 57.4594 34.559 57.2185 34.8626 56.9148L56.9319 34.8805C57.2357 34.5769 57.4768 34.2163 57.6413 33.8195C57.8058 33.4226 57.8905 32.9973 57.8906 32.5677C57.8906 32.1381 57.806 31.7126 57.6414 31.3157C57.4769 30.9188 57.2358 30.5583 56.9319 30.2546" fill="white"/>
</g>
</g>
<defs>
<clipPath id="clip0_118757_14">
<rect width="65" height="65" fill="white"/>
</clipPath>
</defs>
</svg>
