<svg width="30" height="65" viewBox="0 0 30 65" fill="none" xmlns="http://www.w3.org/2000/svg">
<g clip-path="url(#clip0_118819_39)">
<path d="M22.6564 63.019L23.2796 52.6339L25.0005 49.6963C25.0005 49.6963 21.0838 51.2985 14.5264 51.2985C7.96903 51.2985 4.11163 49.7259 4.11163 49.7259L6.04027 52.9304L6.72254 63.019C6.72254 64.1006 10.2894 64.9772 14.6895 64.9772C19.0894 64.9772 22.6564 64.1006 22.6564 63.019ZM20.6904 14.5222L21.9986 9.35149L29.2429 1.7288L27.3335 0.102539L19.664 8.2226L18.1451 14.4002C17.0019 14.3619 15.8582 14.3429 14.7144 14.3432C6.63699 14.3432 0.0888672 15.2637 0.0888672 16.399C0.0888672 17.5345 6.63699 18.4549 14.7144 18.4549C22.7918 18.4549 29.3398 17.5345 29.3398 16.399C29.3398 15.563 25.7884 14.8434 20.6904 14.5222Z" fill="#D34A47"/>
<path d="M19.9294 17.4179C19.9294 17.4179 19.6461 17.4814 18.8127 17.485C17.9791 17.4884 17.3872 17.4796 17.1514 17.2648C17.0881 17.2072 17.0534 17.0927 17.0537 17.0152C17.0544 16.8676 17.1591 16.7807 17.2926 16.7262L17.4188 16.9242C17.3639 16.9432 17.3325 16.9656 17.3324 16.9895C17.332 17.1015 18.1848 17.1783 18.8371 17.17C19.4895 17.1619 20.2778 17.1082 20.2784 16.9977C20.2784 16.9643 20.2188 16.9328 20.1151 16.908L20.2408 16.7114C20.4098 16.7639 20.5574 16.8653 20.5571 17.0408C20.5554 17.3391 20.1758 17.3845 19.9294 17.4179Z" fill="white"/>
<path d="M29.228 1.74371C29.4101 1.53332 29.1337 0.995172 28.6106 0.541894C28.0873 0.0888467 27.5154 -0.107991 27.3329 0.102398C27.1506 0.312787 27.4272 0.850931 27.9505 1.30398C28.4736 1.75714 29.0457 1.95421 29.228 1.74371ZM22.3073 37.6523C22.1356 36.0004 25.9204 33.6081 24.9491 33.5315C22.8581 33.651 21.8174 35.9819 20.7653 38.4232C20.3798 39.318 19.0606 43.1332 18.1954 42.6635C17.3304 42.194 19.3169 39.0567 19.8736 37.1935C19.2312 37.6646 16.8752 39.495 16.2681 37.7808C15.2919 38.6098 13.206 39.059 13.4414 36.8813C12.922 37.8011 11.7565 39.0854 10.3575 38.5517C8.52031 37.8511 11.4221 31.9987 12.1437 32.2939C12.8653 32.5891 11.998 33.9223 11.7709 34.44C11.2713 35.5793 10.6942 37.0116 11.0798 37.3048C11.7402 37.8071 13.5375 35.4045 13.5774 35.3517C13.9136 34.9076 14.8712 32.0022 15.6431 32.3359C16.4149 32.6695 13.7179 36.5055 14.7263 37.2668C14.9297 37.4204 15.7618 37.172 16.2681 36.6244C16.5956 36.2701 16.4829 35.4854 17.5747 32.8817C18.6665 30.2781 19.6396 27.0357 20.3883 27.2827C21.1371 27.5296 20.5199 29.1938 20.2513 29.8142C18.9908 32.7259 16.8111 37.5362 17.8391 37.172C18.867 36.808 19.4023 36.7866 20.4089 35.6087C21.4155 34.4308 21.3691 32.4905 22.04 32.5318C22.7111 32.5731 22.5984 33.1952 22.4357 33.6689C23.096 32.9133 25.5658 31.3218 26.1621 32.898C26.8683 34.7641 22.6285 37.4595 23.6856 37.322C24.7163 37.188 26.3861 36.1304 27.0991 35.1689L29.0615 17.5263C29.0615 17.5263 27.0868 19.1605 14.5238 19.1605C1.96082 19.1605 0.19043 17.5603 0.19043 17.5603L1.86114 33.6638C2.74794 31.1433 4.85378 26.0453 8.17314 26.2164C9.68307 26.2943 11.6988 29.2017 9.97213 29.3003C9.24128 29.3418 9.16709 27.849 8.30165 27.6298C7.67714 27.4715 6.80768 27.9792 6.24577 28.5293C5.12515 29.6261 2.71498 33.9532 3.03343 36.1104C3.43917 38.8608 6.8287 35.1547 7.40221 34.0545C7.80611 33.2794 8.07897 30.983 8.96233 31.224C9.8458 31.4649 8.88527 33.8348 8.24492 35.93C7.52555 38.2828 7.14738 40.7646 6.24577 40.4791C5.34403 40.1939 6.81285 37.1565 6.75968 36.6244C5.91215 37.4063 4.35077 39.3859 2.35323 38.4061L3.39082 48.4062C3.39082 48.4062 6.1485 50.5851 14.4557 50.5851C22.763 50.5851 25.6228 48.4402 25.6228 48.4402L26.9112 36.8577C25.857 37.8842 22.5209 39.7069 22.3073 37.6523Z" fill="#D34A47"/>
</g>
<defs>
<clipPath id="clip0_118819_39">
<rect width="29.4" height="65" fill="white"/>
</clipPath>
</defs>
</svg>
