<svg width="65" height="65" viewBox="0 0 65 65" fill="none" xmlns="http://www.w3.org/2000/svg">
<path d="M59.5611 49.8164L33.6373 64.4922V53.0613L49.7654 44.1797L59.5611 49.8164ZM61.3385 48.2117V17.5449L51.8525 23.0293V42.7375L61.3334 48.2066L61.3385 48.2117ZM5.43848 49.8164L31.3369 64.482V53.0613L15.2037 44.1797L5.43848 49.8164ZM3.66113 48.2117V17.5449L13.1471 23.0293V42.7375L3.66113 48.2117ZM4.77324 15.5594L31.3623 0.507812V11.5578L14.3252 20.927L14.1881 21.0031L4.77324 15.5594ZM60.2162 15.5594L33.6373 0.507812V11.5578L50.6744 20.9219L50.8115 20.998L60.2264 15.5594H60.2162Z" fill="#8ED6FB"/>
<path d="M31.3621 50.4614L15.4219 41.6915V24.3344L31.3621 33.5157V50.4614ZM33.6371 50.4614L49.5773 41.7016V24.3344L33.6371 33.5157V50.4614ZM16.5035 22.3438L32.4996 13.5383L48.4957 22.3438L32.4996 31.5657L16.5035 22.3438Z" fill="#1C78C0"/>
</svg>
